<svg xmlns="http://www.w3.org/2000/svg" viewBox="0 0 239.18 237.27"><defs><style>.cls-1{fill:#1ebd9e;}.cls-1,.cls-2{fill-rule:evenodd;}.cls-2{fill:#046494;}</style></defs><g id="Layer_2" data-name="Layer 2"><g id="Logo"><path class="cls-1" d="M0,119.59c0,15.24.78,22.78,5.35,36.5.33,1,.56,1.76.9,2.69L9.4,166.4c.78,1.81,1.49,3.2,2.32,4.85,3.95,7.9,10.83,19.09,17.16,25.89L32.23,201c1,1,2.87,3,4.13,3.29-.28-1-1.77-2.76-2.4-3.59-2.27-2.95-4.07-5.94-6.07-9a137.31,137.31,0,0,1-7.39-13.9c-.65-1.53-1.23-3-1.81-4.41-10.2-25.53-9.84-58,.51-83.85A110.48,110.48,0,0,1,37.84,58.65l6.83-7.53,7.41-6.69c1.22-1.09,2.55-2.11,3.85-3.09a124.36,124.36,0,0,1,12.79-8.49c9.93-5.28,19.69-9.63,30.84-12,20.15-4.25,41-4,60.48,2.54A113.92,113.92,0,0,1,187.62,36.5a108.47,108.47,0,0,1,11.45,8.63c2.76,2.32,9.78,9,11.89,11.79.53.7.93,1,1.53,1.82l3.08,3.85c5.8,7.1,11.3,17,15,25.43A106.26,106.26,0,0,1,237,108.61c.74,3.69,1,9.18,2.08,11.31l.09.15c0-13.88-1.42-25.53-5.83-38.66-6-17.94-14.34-33.06-27.84-46.55a114.85,114.85,0,0,0-11.67-10.57,144.71,144.71,0,0,0-13.12-9.12,112.39,112.39,0,0,0-12.06-6.36l-8.26-3a99.14,99.14,0,0,0-11.85-3A154.25,154.25,0,0,0,122.42,0H114A151.37,151.37,0,0,0,88,2.85,93.79,93.79,0,0,0,76.57,6L66.25,10.28a114.77,114.77,0,0,0-13.77,8A100.47,100.47,0,0,0,33.78,34.5c-.33.37-.6.6-1,1L23.2,47.6A133,133,0,0,0,10.32,71.31C4.48,85.55,0,103.29,0,119.59Z"/><path class="cls-2" d="M55.25,62.19c.86-.23,10.52-7,12.42-8.15,13-7.75,31.35-13.62,48.09-13.62,10.31,0,16.06.49,25.6,2.87,3.16.79,6.47,1.8,9.35,2.84A99.87,99.87,0,0,1,167.2,53.8c1.27.77,2.43,1.42,3.72,2.26,6.29,4.14,13.57,9.43,18.34,15.14l2.86,3.12A114.68,114.68,0,0,1,200,84.62l3.54,5.79c1.41,2.61,2.92,5.21,4.14,8.06a77.81,77.81,0,0,1,3.38,8.82c.47,1.63.91,2.93,1.38,4.59,5.73,20.35,4.38,37-.62,57.13-1.78,7.16-3.42,10.15-7,16.22-4.35,7.39-9.8,15.71-16,21.84-.64.63-.76.92-1.32,1.55a113.71,113.71,0,0,1-9.35,8.11,97.75,97.75,0,0,1-30.38,16c-8.53,2.85-11.23,2.34-17.5,4l-1.18.49h.42a102.65,102.65,0,0,0,11.75-.5A103.67,103.67,0,0,0,188,219.38c.72-.48,1.11-.82,1.82-1.3s1.28-.87,2-1.38l3.64-2.82c1.17-1,2.41-1.89,3.48-3l3.35-3.11a108.37,108.37,0,0,0,21.27-29.92c.7-1.41,1.28-2.82,1.88-4.33,4.55-11.36,7.76-25.29,7.76-37.45,0-11.48-.25-17-3-28.08-2.88-11.52-6.07-17.46-11.18-26.85a101.26,101.26,0,0,0-7.65-11.25c-1-1.24-1.84-2.37-2.87-3.59-9.29-11-22.82-20.85-36.12-27-1.5-.69-2.84-1.19-4.4-1.82s-3-1.19-4.7-1.75c-18.34-6.07-39.78-7.19-58.7-2.44a99.32,99.32,0,0,0-27.69,11.3c-7.91,4.76-8.57,6-15.07,11C60.6,56.53,55.56,61,55.25,62.19Z"/><path class="cls-1" d="M157.86,165v21.29l-5,2.63c0-3.14.26-53.84-.22-54.32s-15.84-.21-18-.21c0,20.25-.24,40.09-.24,60.51-2.06.17-.32.48-4.78.48-1.16-4.95-.21-19.68-.25-27,0-3.08.6-7.86.18-10.93l-.41-5.33H111v42.33c-1.5,0-2.15-.24-3.35-.24.79,1.19,5.93,2.47,7.57,3,13.69,4.07,32.44,1.87,45.12-3.61a65,65,0,0,0,13.46-7.82,70.73,70.73,0,0,0,28.09-56.58c0-15.86-7-33.54-16.45-44.31-.48-.54-.73-.91-1.19-1.43A69.79,69.79,0,0,0,173,73.36c-13.62-10.21-32.73-15-49.89-12.44a57.76,57.76,0,0,0-15.71,4.13l-.65.31-.15.09a.89.89,0,0,0-.16.09c4.21,0,7.43-1,11.27-1.42,1.75-.2,4-.34,5.73-.49a13.06,13.06,0,0,1,3,.13c1.09.17,2.09,0,3.18.17a70.31,70.31,0,0,1,20.26,5.33c20.44,8.55,35.37,28.26,39,50,2.49,14.93-.4,29-7.27,42.2a39.16,39.16,0,0,1-5.27,7.65V117.2H157.86Z"/><path class="cls-2" d="M94.48,223.15c2.24-2.57,3.86-20.93,4.27-24.67.31-2.92.72-20.25.37-22.55-.28-1.88.08-3.91-.13-5.84l-.92-10.81c-1.55-23.09-13.21-54.67-13.4-56.91a83.13,83.13,0,0,1,10.11.41l7.35.55c3.2.17,10.16-.07,12.85.3,7.14,1,30.76-.58,36.94-1.46a127.34,127.34,0,0,0,20.26-4.38,10.12,10.12,0,0,0,2.66-.92c-1.47,0-1.92-.42-3.73-.14-3,.46-21.15.38-23.78.38-19.82,0-54.08-4.42-74.48-8.27A93.33,93.33,0,0,0,62.43,87.3c.14,1.71,6.56,14.83,7.92,18.15.49,1.19,1,2.37,1.54,3.72,1,2.61,2,5,3,7.55,2,5.13,3.62,10.14,5.41,15.64s3,11.11,4.61,16.44a151.61,151.61,0,0,1,3.75,17c1.12,5.92,2.13,12.24,2.91,18.15A279.73,279.73,0,0,1,94,213.12c0,1.55.26,2,.24,5C94.22,220,94.48,221.12,94.48,223.15Z"/><path class="cls-1" d="M23.2,113.85c.35,1.29,13,16.43,14.52,18.48a275.89,275.89,0,0,1,15.84,23.15l10.06,17.69c.62,1.23,1.18,2.36,1.84,3.66l2.64,5.73c.32.77.59,1.15.92,1.95.59,1.42,1,2.44,1.64,3.86,1.15,2.75,2.16,5.26,3.24,8,2.12,5.32,4,10.65,6.12,16.12,1.43,3.71,4.23,13.21,5.29,15.52a2.39,2.39,0,0,0,.56.88c0-1.56.4-2.58.2-4.27-.15-1.27-.08-2.87-.24-4.3A179.85,179.85,0,0,0,77.7,183c-4.6-13.68-8.54-24.18-15.74-36.63-.31-.54-.48-1-.83-1.57L47.36,122c1.7,0,17-3.21,19.18-3.77,1-.27,1.64-.55,2.58-.77-.14-1.77-2.05-6.2-2.87-7.9-3.57,0-16.69,1.86-21.52,2.16C40.48,112,26.26,113.85,23.2,113.85Z"/></g></g></svg>